<?xml version="1.0" encoding="utf-8"?>
<svg xmlns="http://www.w3.org/2000/svg" xmlns:xlink="http://www.w3.org/1999/xlink" style="margin: auto; background: none; display: block; shape-rendering: auto; animation-play-state: running; animation-delay: 0s;" width="111px" height="111px" viewBox="0 0 100 100" preserveAspectRatio="xMidYMid">
<g transform="translate(50 50)" style="animation-play-state: running; animation-delay: 0s;">
<g style="animation-play-state: running; animation-delay: 0s;">
<animateTransform attributeName="transform" type="rotate" values="0;45" keyTimes="0;1" dur="0.2s" repeatCount="indefinite" style="animation-play-state: running; animation-delay: 0s;"></animateTransform><path d="M27.888169534768682 -2.5 L30.888169534768682 -2.5 L30.888169534768682 2.5 L27.888169534768682 2.5 A28 28 0 0 1 21.487680745881388 17.95214683994865 L21.487680745881388 17.95214683994865 L23.60900108944103 20.073467183508292 L20.073467183508292 23.60900108944103 L17.95214683994865 21.487680745881388 A28 28 0 0 1 2.500000000000002 27.888169534768682 L2.500000000000002 27.888169534768682 L2.500000000000002 30.888169534768682 L-2.499999999999999 30.888169534768682 L-2.499999999999999 27.888169534768682 A28 28 0 0 1 -17.952146839948647 21.487680745881388 L-17.952146839948647 21.487680745881388 L-20.07346718350829 23.60900108944103 L-23.609001089441026 20.073467183508292 L-21.487680745881384 17.95214683994865 A28 28 0 0 1 -27.888169534768682 2.500000000000004 L-27.888169534768682 2.500000000000004 L-30.888169534768682 2.5000000000000044 L-30.888169534768682 -2.4999999999999964 L-27.888169534768682 -2.499999999999997 A28 28 0 0 1 -21.48768074588139 -17.952146839948647 L-21.48768074588139 -17.952146839948647 L-23.609001089441033 -20.07346718350829 L-20.073467183508303 -23.60900108944102 L-17.95214683994866 -21.487680745881377 A28 28 0 0 1 -2.4999999999999933 -27.888169534768682 L-2.4999999999999933 -27.888169534768682 L-2.499999999999994 -30.888169534768682 L2.4999999999999827 -30.888169534768686 L2.499999999999983 -27.888169534768686 A28 28 0 0 1 17.952146839948654 -21.487680745881384 L17.952146839948654 -21.487680745881384 L20.073467183508296 -23.609001089441026 L23.60900108944102 -20.073467183508303 L21.487680745881377 -17.95214683994866 A28 28 0 0 1 27.888169534768682 -2.499999999999995 M0 -27A27 27 0 1 0 0 27 A27 27 0 1 0 0 -27" fill="#191d3a" style="animation-play-state: running; animation-delay: 0s;"></path></g></g>
<!-- [ldio] generated by https://loading.io/ --></svg>